<?xml version="1.0" encoding="utf-8"?>
<!-- Generator: Adobe Illustrator 27.9.0, SVG Export Plug-In . SVG Version: 6.00 Build 0)  -->
<svg version="1.1" id="Layer_1" xmlns="http://www.w3.org/2000/svg" xmlns:xlink="http://www.w3.org/1999/xlink" x="0px" y="0px"
	 viewBox="0 0 1024 1024" style="enable-background:new 0 0 1024 1024;" xml:space="preserve">
<g>
	<path d="M685.01,236.53c-0.99,5.85,1.08,11.62,0.88,17.67c-2.3-0.76-2.36-3.79-5.12-3.53c0,2.87,0,5.77,0,9.09
		c-2.31-2.1-2.38-5.18-4.74-8.2c0.44,6.05,0.37,11.05-0.96,15.94c-0.26,0.97,0.14,1.93,0.82,2.77
		c8.55,10.38,10.56,23.37,14.11,35.72c0.71,2.45,1.47,4.87,3.47,6.47c4.62,3.7,6.26,8.91,7.45,14.3c1.41,6.35,3.93,12.31,5.9,18.46
		c0.88,2.76,1.93,2.37,3.88,1.14c3.14-1.99,6.03-4.11,7.67-7.61c0.63-1.34,1.25-2.95,2.37-3.76c6.07-4.46,6.37-10.57,5.29-17.14
		c-2.27-13.77,4.36-24.81,11.09-35.75c3.16-5.14,7.39-6.03,12.21-2.64c1.8,1.26,2.37,0.6,3.63-0.41c8.72-6.94,19.32-2.87,21.13,8.11
		c0.41,2.47,1.31,4.03,3.87,5.1c5.78,2.41,9.13,6.57,10.98,13.04c2.92,10.24,2.44,20.32,1.24,30.51
		c-0.73,6.19-4.05,11.28-8.98,15.07c-1.84,1.42-2.49,2.68-2.06,4.96c0.46,2.49,0.1,5.12-1.34,7.22
		c-8.92,13.02-14.95,27.91-25.6,39.82c-0.78,0.87-1.39,1.98-2.33,2.59c-7.81,5.12-10.11,13.3-12.69,21.58
		c-26.81,86.26-55.8,171.81-85.16,257.23c-1.68,4.88-2.01,8.26,3.23,11.27c4.95,2.84,8.92,7.24,9.69,13.26
		c0.71,5.52,0.14,8.8-7.1,7.81c-1.81-0.25-3.59-0.76-5.4-0.87c-0.89-0.05-2.63-1.08-2.65,1c-0.02,4.38-2.49,1.7-3.37,0.95
		c-3.28-2.77-4.78-0.88-6.13,1.93c-1.65,3.44-3.17,6.96-5.01,10.3c-0.89,1.61-1.75,4.36-4.14,3.45c-2.34-0.88-1.14-3.57-0.96-5.39
		c0.45-4.6,2-8.99,2.03-13.76c0.02-4.14-1.85-6.3-4.94-8.07c-1.43-0.82-2.95-1.5-4.47-2.16c-5.92-2.6-6.54-8.15-1.28-12.11
		c4.65-3.5,10.08-4.37,15.61-3.56c3.36,0.49,4.57-0.42,5.56-3.6c13.02-41.67,26.18-83.3,39.31-124.94
		c12.42-39.41,24.84-78.81,37.27-118.22c1.77-5.6,3.56-11.19,5.38-16.91c-0.57,0.03-0.78-0.02-0.89,0.06
		c-18.5,12.61-27.06,12.64-44.19-1.46c-18.98-15.61-33.99-34.62-45.53-56.35c-0.94-1.78-1.08-4.32-4.22-1.5
		c-10.91,9.79-21.97,19.47-36.56,23.6c-1.8,0.51-2.48,2.06-3.12,3.62c-4.74,11.58-10.44,22.67-17.32,33.12
		c-1.64,2.49-3.24,5.49-5.65,6.89c-6.17,3.58-7.3,9.3-8.18,15.47c-0.84,5.9-3.02,11.45-5.48,17.28c17.89,1.2,35.2,3.89,52.43,7.22
		c18.41,3.56,36.31,8.41,50.46,21.69c13.72,12.87,17.12,28.92,10.03,46.36c-7.67,18.85-19.94,34.95-31.55,51.38
		c-16.14,22.83-33.86,44.54-48.57,68.39c-0.69,1.11-1.57,2.34-1.66,3.55c-0.56,8.32-5.61,14.06-11.14,19.43
		c-1.73,1.68-2.35,3.28-2.38,5.6c-0.07,4.74-1.7,9.11-3.88,13.28c-1.16,2.22-3.14,3.45-5.42,4.12c-6.96,2.05-8.35,5.95-4.54,12.07
		c3.72,5.99,8.26,11.22,13.27,16.15c4.55,4.47,6.73,9.85,4.6,16.32c-0.57,1.73-0.18,2.99,1.17,4.41c4.99,5.27,7.93,11.15,4.12,18.45
		c-0.98,1.88,0.39,2.3,1.66,2.79c6.15,2.39,10.92,6.2,13.29,12.61c0.27,0.73,0.91,1.56,1.59,1.88c7.9,3.69,15.22,8.71,24.29,9.67
		c4.07,0.43,8.06,1.92,12.01,3.19c2.65,0.85,5.4,1.74,6.03,5.21c0.35,1.89,2.11,2.14,3.82,2.59c33.59,8.71,67.31,16.89,101.07,24.91
		c30.07,7.15,60.3,13.58,90.6,19.67c22.91,4.6,46.16,5.39,69.49,5.49c9.76,0.04,19.5,1.78,28.01,7.34
		c7.08,4.63,8.39,10.63,3.94,17.99c-5.28,8.75-14,12.5-23.14,15.38c-17.55,5.53-35.45,4.72-53.4,2.57c-0.46-0.06-0.94-0.01-2.1-0.01
		c4.02,7.3,3.58,14.06-0.98,20.71c-6.27,9.14-15.48,13.26-25.73,15.79c-20.15,4.98-39.78,2.2-59.38-3.45
		c-63.01-18.17-125.52-37.99-188.31-56.89c-61.97-18.66-123.91-37.46-185.96-55.84c-37.32-11.06-74.83-21.47-112.27-32.11
		c-33.71-9.59-67.51-18.91-101.16-28.71c-21.68-6.32-43.17-13.32-64.58-20.62c66.86,14.48,132.32,34.37,198.7,50.85
		c-10.98-3.73-21.97-7.46-32.95-11.2c-54.8-18.64-110.98-32.65-166.19-49.93c-8.06-2.52-16.1-5.08-24.15-7.65
		c-4.7-1.5-4.69-1.52-6.06-7.26c12.4,2.98,24.51,5.94,36.64,8.81c52.5,12.41,104.87,25.37,156.99,39.24
		c56.77,15.12,113.28,31.2,169.84,47.09c39.53,11.1,78.92,22.68,118.43,33.85c35.4,10.01,71.07,18.97,106.75,27.9
		c26.78,6.7,53.75,12.46,81.01,16.76c11.03,1.74,22.26,0.78,33.37,1.46c15.88,0.98,31.7,2.69,46.67,8.68
		c6.73,2.69,12.91,6.14,16.58,14.15c0.07-6.01-2.78-9.09-6.31-11.67c-8.5-6.22-18.5-8.93-28.48-11.31
		c-13.6-3.24-27.45-4.92-41.46-5.36c-15.26-0.48-30.31-2.79-45.37-5.33c-52.8-8.91-104.24-23.62-156.05-36.66
		c-30.56-7.7-60.81-16.64-91.15-25.18c-38.01-10.7-75.93-21.7-113.96-32.31c-41.4-11.56-82.88-22.81-124.33-34.23
		c-2.22-0.61-4.37-1.47-6.64-2.25c5.52-6.19,6.3-6.47,13.57-3.91c3.04,1.07,5.02,1.55,7.82-1.61c2.76-3.12,7.4-0.79,10.58,1.04
		c2.59,1.49,4.02,2.19,5.91-0.66c2.3-3.48,4.92-0.91,8.31,0.42c-3.75-7.33-6.5-14.27-9.24-21.21c-1.06-2.7-0.6-3.93,1.82-4.96
		c0.91-0.39,1.7-1.05,2.56-1.55c5.25-3.03,6.63-2.64,9.84,2.75c2.21,3.71,4.01,7.65,6.94,10.93c3.06,3.43,5.95,3.92,9.12,0.3
		c0.33-0.37,0.67-0.98,1.05-1.02c7.03-0.69,10.51-5.31,12.9-11.32c0.32-0.81,1.45-1.38,1.43-2.47c-0.08-4.37,3.17-6.38,6.15-8.43
		c8.72-5.99,17.31-2.25,19.14,8.23c0.14,0.8,0.27,1.6,0.59,3.47c5.04-4.96,10.28-8.89,13.9-13.97c5.16-7.24,11.34-13.38,17.77-19.28
		c8.83-8.08,18.1-15.68,27.16-23.51c0.62-0.54,1.59-1.14,1.67-1.79c0.72-6.64,5.76-7.35,10.82-8c1.12-0.14,1.92-0.45,2.09-1.65
		c0.81-5.67,5.31-8.72,8.99-12.17c27.23-25.51,55.48-49.83,85.57-71.94c1.16-0.85,2.62-1.5,3.12-3.35
		c-26.44-10.61-51.56-23.93-76.18-38.2c-11.93-6.92-24.14-13.5-34.31-23.09c-11.52-10.86-18.96-23.87-21.32-39.64
		c-0.14-0.97-0.25-2.1-0.81-2.82c-7.48-9.63-6.36-20.24-3.36-30.9c9.19-32.71,28.72-58.49,54.32-80.09
		c7.38-6.23,14.99-12.2,23.8-16.36c1.3-0.61,2.21-1.46,2.77-2.71c6.61-14.81,8.94-30.74,12.77-46.98
		c-12.5,2.82-24.29,5.75-36.26,7.86c-14.9,2.63-29.82,4.49-44.98,5.15c-21.62,0.95-41.12-5.83-60.32-14.35
		c-2.1-0.93-4.18-2.24-5.8-3.84c-3.59-3.58-5.14-1.89-7.14,1.76c-25.52,46.54-51.17,93.01-76.78,139.5
		c-24.89,45.17-49.95,90.25-74.59,135.55c-15.42,28.34-32.24,55.88-47.81,84.13c-1.42,2.58-1.46,3.58,1.01,5.46
		c4.84,3.69,8.58,8.44,9.29,14.8c0.75,6.72-2.06,9.02-8.49,7.21c-1.59-0.45-3.14-1.04-4.71-1.56c-2.27-0.75-4.77-2.37-5.65,1.71
		c-0.31,1.45-1.34,1.29-2.18,0.42c-2.91-3.01-4.29-0.35-5.79,1.57c-2.77,3.53-4.79,7.62-8,10.84c-0.94,0.94-1.77,2.36-3.26,1.73
		c-1.93-0.82-1.06-2.75-0.67-3.95c1.19-3.62,2.95-7.05,4.11-10.68c3.6-11.29,1.97-11.85-6.22-14.94c-2.91-1.1-6.97-1.71-6.84-6.16
		c0.13-4.41,3.26-6.8,6.92-8.34c5.56-2.34,11.44-2.43,17.1-0.77c3.7,1.08,5.35-0.01,7.04-3.16c15.38-28.73,30.98-57.34,46.36-86.07
		c17.97-33.58,35.77-67.25,53.66-100.87c25.61-48.16,51.22-96.32,76.85-144.47c5.94-11.16,11.84-22.34,17.94-33.41
		c1.6-2.9,2.52-5.06-0.53-7.72c-2.21-1.93-3.88-4.58-5.44-7.12c-6.38-10.34-9.33-21.06-3.06-32.64c0.61-1.12,0.84-2.51,0.97-3.81
		c0.39-3.88,2.25-6.55,5.4-9.01c4.38-3.41,8.43-7.36,12.05-11.57c4.68-5.44,10.15-7.62,17.07-5.25c2.03,0.7,2.58-0.2,3.61-1.33
		c7.88-8.68,20.17-6.98,25.47,3.5c3.79,7.5,6.8,15.2,5.37,23.87c-0.56,3.42,0.88,4.14,4.2,4.86c8.84,1.92,18.06-0.96,26.7,2.54
		c1.46,0.59,2.29-0.88,3.24-1.82c3.37-3.38,7.44-5.99,12.07-6.68c14.48-2.16,28.05-6.75,41.41-12.7c9.01-4.01,18.39-7.29,28.59-8.26
		c5.88-0.56,11.47-4.11,17.19-6.3c1.04-0.4,1.65-1.17,1.69-2.25c0.29-6.98,3.05-13.1,6.67-19.05c-5.55,4.16-10.9,8.37-17.15,11.56
		c1.4-1.61,2.81-3.21,4.72-5.4c-5.92,1.28-9.97,5.65-16.32,5.99c6.32-3.88,12-7.3,16.43-12.52c-9.22,4.41-19,7.14-29.05,9.67
		c6.18-4.38,12.36-8.76,18.54-13.14c-11.58,3-22.92,6.27-34.7,7.87c25.28-12.78,50.51-25.56,75.29-39.23
		c-19.37,7.17-36.97,18.16-55.82,26.43c21.31-18.68,48.93-25.56,72.99-39.07c-27.17,4.64-49.72,20.74-75.35,29.2
		c20.13-13.23,39.67-27.44,61.92-37.16c-2.6,3.94-7.79,4.05-11.13,7.78c16.92-3.12,32.38-9.61,49.54-13.28
		c-8.22-2.5-15.6-1.91-24.33-0.62c7.22-3.62,13.47-5.94,20.98-6.1c-2.78-2.86-6.28-2.54-9.35-4.57c6.79-0.72,12.8,0.25,18.67,2.4
		c-0.58-3.12-2.32-5.17-7.15-7.64c-9.28-4.75-19.11-4.5-28.57-1.4c-11.51,3.77-22.39,9.12-31.75,17.18
		c14.15-24.54,53.38-34.9,73.26-13.18c20.41-19.72,56.51-19.05,78.03-5.67c15.27,9.49,22.82,24.1,27.5,40.68
		c0.71,2.53,1.02,5.19,1.4,7.81c0.56,3.82,0.43,7.83,5.05,9.66c1.62,0.64,1.75,2.72,1.7,4.43c-0.35,14.24-4.59,27.4-11.2,39.87
		c-0.95,1.79-2.57,3.51-4.54,3.69c-6.72,0.62-6.82,6.95-9.75,10.81c-1.16,1.53,0.32,1.71,1.33,2.34c2.94,1.83,5.73,3.88,8.59,5.86
		c-1.14,1.6-1.88-0.39-3.14,0.38c1.79,2.58,5.03,3.58,6.66,6.41c1.77,3.09-0.54,2.43-2.12,2.92c2.56,3.34,5.43,6.4,5.91,11.13
		c-3.62-1.83-5.21-5.79-8.9-6.97c0,0,0.17,0.2,0.17,0.2c-1.63-1.83-3.31-3.63-4.88-5.52c-1.05-1.26-2.5-2.54-2.79-4.01
		c-0.45-2.27-1.56-4.9-3.29-5.91c-0.88-0.51-1.61-0.63-1.98,0.35c-0.9,2.4-4.41,4.47-2.83,6.98c3.63,5.76,6.62,12.04,12.1,16.73
		c-0.29-1.25-0.58-2.51-0.93-4.01c2.36,0.72,3.24,3.29,5.6,3.37L685.01,236.53z M550.11,404.68c-5.19,4.16-5.5,5-1.56,9.51
		c3.72,4.25,8.01,7.99,11.84,12.15c1.91,2.08,3.34,1.04,4.56-0.34c8.79-9.92,14.38-21.62,19.7-34.94c-3.44,1.67-6.28,0.98-8.36,2.98
		c0.87,1.13,2.61-0.17,3.55,1.39c-7.14,7.3-13.11,15.43-16.79,25.07c-0.57,1.5-1.47,2.93-3.29,1.87
		c-4.68-2.71-8.38-6.51-11.39-10.98c-1.91-2.82,1.99-4.32,1.65-6.81c6.42-7.49,12.84-14.98,19.27-22.46
		C561.16,388.2,554.61,395.58,550.11,404.68z M668.32,291.09c-1.23,4.74-5.22,8.25-6.3,13.73c2.94-2.33,5.39-4.26,7.88-6.24
		c1.2,2.82-2.26,5.8-0.47,7.48c2.15,2.01,5.16-1.05,7.94-0.84c0.13,0.01,0.25,0.18,0.72,0.53c-3.85,3.39-7.93,6.59-10.29,12.25
		c7.16-2.85,13.8-2.96,20.88-1.74c-2.8-3.82-4.21-8-5.2-12.33c-0.96-4.21-1.28-9.63-4.46-11.83c-4.71-3.26-0.01-7.17-2.25-10.06
		c-0.19-0.24-0.49-0.4-0.84-0.69c-3.1,1.61-3.24,5.64-5.99,7.52c0.57-1.53,1.26-3.03,1.7-4.6c0.82-2.92,0.85-5.66-2.75-7.8
		c0.48,4.04-0.47,7.34-1.49,10.67C667.02,288.38,665.68,290.34,668.32,291.09z M548.97,769.65c1.02,0.84,2.23,1.53,3.03,2.54
		c2.41,3.08,4.64,3.79,8.12,1.09c2.54-1.97,6.06-3.13,9.38-2.45c2.67,0.55,2.71-0.5,2.69-2.42c-0.05-5.39-2.46-9.18-7.99-10.75
		c1.82-1.83,3.29,0.94,4.57-0.7c-5.63-7.7-18.94-11.33-27.16-7.46c-1.24,0.58-3.23,1.82-2.87,2.35c2.41,3.55-1.27,1.98-2.52,2.99
		c3.86,2.7,6.45,6.4,9.26,9.92c-4.74-0.07-4.35-6.4-9.24-7.25C540.01,762.6,543.05,767.59,548.97,769.65z M501,302.06
		c6.64,5.63,13.29,11.26,19.93,16.9c-4.57-0.58-8.55-3-13.19-2.2c-2.42,0.41-3.25,1.15-1.59,3.51c3.64,5.17,7.53,10.1,12.13,14.48
		c12.75,12.14,28.09,19.28,44.98,23.4c12,2.93,23.15,3.4,31.76-8.21c9.28-12.51,16.17-26.1,18.83-41.32
		c2.64-15.1,5.61-30.7-5.33-44.38c-0.03-0.04,0.17-0.26,0.27-0.4c1.82-0.14,2.49,2.34,5.6,2.29
		c-11.47-13.33-26.97-19.93-38.99-31.86c0.13,1.56,0.5,2.56,0.17,2.95c-0.55,0.65-1.21-0.16-1.58-0.62
		c-1.86-2.33-3.66-4.71-5.47-7.09c-0.27-0.36-0.47-0.78-0.66-1.11c-1.57,1.17,0.12,2.52-0.7,3.68
		c-16.12-25.82-24.5-34.99-33.68-36.82c6.34,6.3,9.76,14,11.27,22.71c-3.51-5.24-6.81-10.56-11.47-14.87
		c-9.48-8.78-20.2-9.49-31.13-1.88c1.96,1.14,4.72-0.37,6.06,1.58c-4,2.32-8.54,2.27-13.27,1.89c1,3.45,4.39,2.35,5.85,4.53
		c-0.67,0.16-1.78,0.38-1.77,0.43c0.82,5.25,4.76,9.28,6.06,14.89c-17.58-16.25-25.88-19.67-34.33-14.34
		c1.31,1.12,3.41,1.22,4.26,3.36c-4.41-0.78-8.68-2.01-13.33-0.45c3.98,3.5,7.48,6.7,10.19,10.9c-7.86-4.38-16.08-5.5-25.4-3.94
		c5.3,5.35,9.71,10.67,10.65,18.58c-2-1.84-3.47-3.16-4.91-4.52c-5.15-4.86-10.77-8.88-17.99-10c-1.2-0.19-2.97-0.94-3.16,1.14
		c-0.3,3.43-1.83,1.67-3.17,0.92c-2.47-1.39-4.92-2.69-7.38,0.16c1.75,2.33,4.63,3.79,5.21,7.47c-4.19-1.76-8.1-3.7-12.87-1.62
		c9.67,15.07,15.28,31.15,13.7,49.31c4.79-8.13,6.89-16.7,7.27-25.86c1.05,7.2,2.1,14.4,3.15,21.6c1.56-6.6,3.21-12.95,3.2-20.82
		c4.3,7.5,9.64,10.97,17.11,11.26c3.56,0.14,5.2-0.55,4.83-4.53c-0.56-6.19-0.68-12.41-0.99-18.62c4.25,6.59,6.55,13.85,8.49,21.4
		c2.88-1.23,3.05-3.73,3.88-5.75c1.76,1.55-0.11,5.14,3.42,5.42c7.61,0.61,15.23,1.16,22.84,1.84c2.97,0.27,3.89-1.02,4.42-3.86
		c1.93-10.34,1.25-20.44-2.51-31.33c7.47,6.52,8.12,14.18,7.19,23.32c3.84-5.76,3.97-11.72,7.06-17.62
		c-0.37,4.88-0.77,8.68-0.92,12.48c-0.15,3.83-0.12,7.66,0.77,11.44c0.33,1.4,0.07,2.94,2.17,3.37c9.65,1.97,17.8-1.99,22.35-10.94
		c3.28-6.46,4.99-13.4,6.24-20.96c1.07,6.86,0.31,13.18-0.65,19.39c-1.72,11.1-4.1,22.09-14.18,29.13
		c-2.35,1.64-1.65,2.73-0.07,4.16c3.68,3.34,7.35,6.71,11.72,10.71c-3.5-1.16-6.18-2.06-10.17-3.38
		c8.04,7.65,16.72,11.98,25.84,17.98c-7.25-1.95-11.74-6.24-17.78-8.9c1.19,2.39,3.79,2.47,4,5.05
		c-10.02-5.53-19.81-10.93-30.78-16.98c7.46,11.47,16.42,19.96,23.85,29.73C526.23,313.46,514.98,305.22,501,302.06z M536.17,373.48
		c8,1.46,14.87,4.02,23.47,4.8c-9.58-5.06-17.96-9.48-26.33-13.91c9.82,0.95,19.32,0.2,28.82,0.08c-4.45-1.98-8.95-3.52-13.38-5.24
		c-14.52-5.64-28.56-12.52-43.56-16.95c-4.34-1.28-8.7-2.32-13.24-1.58c-2.62,0.42-4.75,1.86-5.66,4.38
		c-0.94,2.6,1.63,3.28,3.03,4.52c0.85,0.76,1.81,1.4,2.72,2.09c-7.6-1.07-14.75-5.35-22.56,0.5c7.36,3.86,13.89,8.06,19,14.19
		c-5.42-2.72-10.73-5.47-18.42-6.07c5.32,4.19,9.48,7.48,13.65,10.76c-7.4-3.34-14.81-6.36-22.72-8.06
		c-2.63-0.57-4.95-0.51-6.8,2.08c4.89,3.04,8.99,6.83,12.31,12.63c-10.7-5.1-20.58-8.89-31.32-0.08
		c11.65,4.31,21.04,10.48,28.32,19.64c-6.48-3.5-12.61-7.67-19.81-9.71c-6.92-1.96-16.37-0.85-20.99,2.81
		c2.98,0.14,5.97,0.28,10.34,0.49c-5.13,2.39-9.79,1.93-13.45,5.2c1.82,0.32,3.23,0.57,5.27,0.93c-1.9,0.94-3.69,0.11-4.51,1.37
		c0.46,2.26,2.42,2.04,3.92,2.88c-7.67,2.57-14.21,6.22-20.25,12.46c10.33-1.46,19.84-1.5,29.39-0.47
		c9.69,1.05,19.41,2.11,29.78,0.85c-4.9-3.05-10.31-3.58-15.42-6.32c8.89-0.62,16.82,1.44,25.1,2.69c-5.45-3.47-4.26-7.68-1.75-11.8
		c1.36-2.24,3.13-4.33,5.06-6.12c12.12-11.19,23.8-22.81,35.15-34.76c3.49-3.68,7.08-4.1,10.87-1.1c3.67,2.9,0.9,5.81-0.41,8.4
		c-2.49,4.93-5.91,9.27-9.79,13.19c-9.03,9.1-18.02,18.26-27.27,27.14c-3.24,3.11-2.33,4.01,1.28,5.35
		c9.5,3.5,18.9,7.25,28.29,11.03c3.69,1.49,7.26,3.28,11.2,4.08c3.79,0.77,5.65-0.82,5.63-4.66c-0.01-1.75-0.71-3.22-1.48-4.71
		c-4.14-8.08-10.97-13.5-18.59-18.5c4.57,0.39,8.3,2.69,13.1,3.79c-4.8-4.94-10.08-8-15.17-11.38c9.12,2.51,17.62,6.34,25.75,11.08
		c1.26,0.74,2.51,2.41,4.18,0.2c8.57-11.33,9.99-16.98,0.07-25.65C538.27,375.41,537.57,374.75,536.17,373.48z M415.44,767.78
		c-0.2,0.24-0.4,0.49-0.61,0.73c-0.68-0.65-1.36-1.3-2.05-1.94c-8.56-7.93-16.27-16.64-23.6-25.7c-0.69-0.85-1.47-2.3-2.7-1.39
		c-0.92,0.68-0.64,2.21-0.13,3.27c0.42,0.88,1.13,1.64,1.75,2.42c6.96,8.73,14.95,16.52,22.34,24.85
		c7.65,8.63,16.13,15.62,27.15,19.59c11.26,4.05,11.23,4.29,11.15-7.89c-0.08-11.05,4.39-17.82,14.42-20.49
		c7.35-1.95,14.51-0.96,20.79,3.86c1.48,1.14,2.7,2.75,4.77,3.17c1.19-13.32-8.48-17.68-35.82-16.03
		c7.39-4.04,14.62-5.44,22.41-4.56c-8.26-3.26-16.85-2.98-25.51-2.75c6.07-4.46,13.25-2.86,19.96-3.84
		c-8.61-0.91-17.15-2.77-25.85-0.84c4.98-4.18,11.03-3.66,17.96-3.66c-8.2-4.37-15.43-1.18-22.61-0.85
		c6.76-5.48,14.16-6.43,22.19-3.66c-8.78-4.93-18.1-3.7-28.37-2.38c4.09-3.16,8.14-3.3,11.86-4.39c3.73-1.1,7.44-0.6,11.25-0.19
		c-13.06-6.63-27.88-7.34-40.98-13.26c2.06-0.27,4.19-0.71,6.34-0.8c16.47-0.72,32.25,1.01,44.96,13.17
		c0.88,0.84,1.46,2.82,2.98,1.85c0.91-0.58,1.18-2.28,1.56-3.52c0.64-2.11-0.67-3.4-2.11-4.64c-8.07-6.91-17.26-11.63-27.46-14.56
		c-2.16-0.62-4.26-0.89-6.38-0.59c-14.76,2.08-29.53,4.05-43.81,8.7c-2.77,0.9-3.35,1.94-3.08,4.47c0.55,5.13,1.73,10.45,0.44,15.4
		c-1.28,4.9,0.69,7.9,3.58,11.04C399.98,750.83,407.7,759.31,415.44,767.78z M663.36,106.03c4.97,5.63,6.29,13.28,11.9,20.14
		c-2.63-9.49-5.44-17.35-8.79-25.06c5.08,6.12,8.92,12.97,13.34,20.24c-3.64-23.56-28.03-38.67-56.43-35.63
		c-23.84,2.56-44.34,20.97-42.88,38.9c6.04-4.38,10.92-10.3,18.43-12.08c-4.18,2.39-7.49,5.61-10.71,10.32
		c4.63-2.2,7.14-6.03,12.2-7.39c-5.59,5.09-10.49,9.55-15.39,14.01c5.54-0.92,9.57-4.73,14.82-6.05c-3.62,2.71-7.25,5.42-10.87,8.13
		c3.34-0.23,6.17-1.83,9.56-1.72c-1.6,2.09-3.96,2.41-5.99,3.39c2.31,3.13,6.74-1.08,8.79,3.22c0.34,0.72,4.31,1.63,6.6,2.48
		c3.91,1.47,7.66,2.57,11.8-0.08c9.92-6.35,21.19-9.22,32.52-11.84c3.83-0.88,9.27,0.86,11.2-2.27c1.75-2.84-1.47-7.31-2.69-12.34
		c2.9,4.27,3.76,7.97,5.27,11.39c0.42,0.94,1.12,1.94,2.21,1.53c1.22-0.45,0.62-1.58,0.4-2.53
		C667.37,117.06,665.71,111.43,663.36,106.03z M604.6,221.95c-0.2-7.11-0.82-13.14-2.94-19.06c1.59,2.55,3.19,5.1,5.3,8.48
		c-0.27-5.63-3.52-9.2-3.72-13.73c11.49,15.45,24.77,30.25,17.69,53.43c5.65-8.36,7.93-15.95,4.94-24.32
		c-1.61-4.52-3.38-9.09-5.81-13.19c-7.35-12.4-15.52-24.26-24.83-36.06c-0.52,3.57,1.86,6.29,0.4,9.55
		c-2.76-4.96-5.41-9.74-8.11-14.59c-1.34,1.97,1.17,3.61-0.07,5.59c-2.53-4.3-4.98-8.49-7.44-12.67c-0.16,0.08-0.32,0.17-0.48,0.25
		c0.76,2.63,1.52,5.26,2.29,7.89c-5.02-6.38-9.28-13.01-10.34-21.15c-2.12,0.7-0.37,2.8-2.13,3.45c-1.85-6.03-0.6-12.49-1.78-19.17
		c-2.2,1.72-0.82,3.67-2.5,4.79c-2.1-2.45-4.14-4.83-6.57-7.68c0.26,3.22,2.65,4.96,2.4,7.95c-3.32-3.11-6.38-5.97-9.44-8.83
		c2.51,4.45,4.79,8.65,6.35,13.29c-4.64-3.89-9.26-7.19-16.43-5.75c4.37,1.81,6.7,5.17,11.05,8.37c-5.94-1.83-10.57-2.71-15.83-2.14
		c2.57,2.16,6.36,1.5,8.09,4.75c-2.97,0.14-5.75-1.67-8.43,0.21c0.74,3,4.48,1.09,5.56,3.77c-4.21,0.2-8.04,1.51-12.72,3.68
		c6.07-0.45,11.06-1.12,15.88,0.96c-3.8,0.77-7.67,1.05-10.56,4.17c1.55,1.1,3.36-0.44,4.66,1.16c-3.32,1.77-7.16,2.61-9.86,6.36
		c4.27-0.66,7.96-1.22,11.7-1.8c-4.49,4.04-8.93,8.04-13.37,12.04c6.14-2.42,11.01-7.05,18.4-8.49c-4.78,4.46-9.39,7.91-11.63,14.66
		c5.45-4,9.03-8.71,15.2-11.15c-1.67,3-5.5,3.3-5.5,6.87c4.13-0.01,6.53-3.02,9.87-4.4c-3.17,3.21-4.02,7.8-8.31,10.89
		c3.18,0.26,4.13-2.01,6.02-2.07c1.22-0.04,2.76-1.15,3.57,0.35c0.64,1.2-0.76,2-1.44,2.91c-1.04,1.39-3.48,2.16-2.37,4.74
		c3.74-1.66,5.33-4.98,7-8.52c0.85,1.63-1.27,2.42-0.15,3.61c1.53,0.47,1.65-2.03,3.19-1.54c0.85,4.08-4.81,6.47-2.79,11.12
		c2.85-1.33,3.1-5.57,7-6.01c-1.36,3.99-5.11,6.53-4.83,11.28c2.96-3.68,5.63-7,8.3-10.33c-0.73,5.92-2.02,11.39-2.66,17.45
		c3.93-4.12,4.16-9.9,8.63-14.05c-2.31,7.32-2.85,13.99-0.19,20.69c-0.49-5.47,1.34-10.28,4.36-15.93
		c0.38,8.31,1.72,15.39,4.03,22.3c0.05-4.78-0.42-9.49,0.44-14.25c-0.14,4.51,0.36,8.78,3.95,12.33c0.85-2.55-1.94-4.78,0.06-7.12
		c3.27,4.57,1.7,10.36,4.25,15.71c0.04-6.93,0.53-13.23-0.49-19.57c3.83,4.93,5.38,10.85,8.52,16.04
		c-1.29-6.84-2.58-13.67-4.14-21.89C599.76,212.51,601.85,216.82,604.6,221.95z M631.73,279.27c-1.67,0.97-2.71-0.29-3.89-0.69
		c-5.97-1.98-7.19-1.12-6.55,5.24c0.49,4.83,0.52,9.61,0.26,14.46c-0.97,18.21-7.11,34.7-16.07,50.35
		c-2.56,4.47-5.4,8.77-7.77,13.57c2.01-0.72,4.02-1.44,6.05-2.17c0.1,1.79-2.4,1.51-1.85,3.4c3.46,0.23,6.9,0.42,10.57-0.59
		c-1.84,2.85-4.9,3.65-7.34,5.77c3.07,0.37,5.36-0.87,7.76-1.82c8.53-3.4,14.43-9.9,20.08-16.76c12.62-15.31,18.6-33.5,23.09-52.39
		c1.72-7.23,4.76-14.16,4.01-21.89c-0.55-5.69-2.4-8.32-7.89-9.71c0.17,2.49,1.22,4.88,0.56,7.4c-8.88-11.13-16.58-14-24.72-8.8
		c5.96,0.83,9.7,3.96,12.3,10.42c-4.14-3.38-7.88-4.57-11.74-5.37c-1.72-0.36-3.29-0.06-4.15,1.84c-0.97,2.15,0.89,2.4,1.99,3.26
		C628.24,276.21,629.94,277.74,631.73,279.27z M563.73,552.13c-6.28-1.53-11.3,1.08-15.97,4.36c-8.44,5.93-16.78,12.01-25.06,18.17
		c-18.86,14.01-36.44,29.6-54.39,44.73c-12.15,10.24-23.94,20.93-36.22,31.71c9.65,2.95,18.82,5.48,27.9,8.77
		c-3.97-2.93-7.93-5.86-12.73-9.4c7.54,0.81,13.11,3.93,18.87,6.63c-3.51-5.12-9.46-6.63-14.55-10.04
		c9.03,0.7,15.94,5.38,23.05,9.68c-5.13-6.14-12.26-9.74-18.61-14.49c9.53,0.52,16.48,6.17,24.27,9.97
		c-4.9-6.01-13.19-7.75-18.42-15.02c6.28,1.62,9.97,6.65,16.74,7.34c-3.53-2.28-6.11-3.94-9.03-5.81c3.38-0.95,5.22,2.92,8.35,2.12
		c-1.57-2.8-5.33-2.76-6.74-6.57c6.73,3.56,12.79,6.76,18.84,9.96c-5.54-5.33-12-9.49-17.12-15.37c6.19,2.9,12.38,5.81,19.72,9.25
		c-4.6-5.92-10.42-8.32-14.65-12.65c5.61,2.12,11.42,3.55,16.41,7.02c-2.44-3.9-7.05-5.39-9.94-10.64
		c6.74,3.22,12.31,5.89,17.88,8.55c0.15-0.24,0.3-0.47,0.45-0.71c-4.78-3.84-9.55-7.67-14.33-11.51c7.66,2.13,14.9,4.91,20.84,10.43
		c0.5-0.62,0.99-1.24,1.49-1.86c-4.52-3.94-9.04-7.89-13.56-11.83c6.67,1.19,11.4,5.87,17.93,8.78c-3.5-5.41-9.73-6.79-13.27-12.42
		c3.99,1.48,6.6,3.97,10.37,3.48c-2.42-3.6-6.95-4.42-9.74-8.18c8.29,1.01,12.54,7.9,19.25,10.65c-3.89-5.71-8.94-10.38-13.09-16.09
		c6.93,4.47,13.86,8.95,21.3,13.75c-4.13-6.63-12.05-9.26-14.28-16.61c3.23,2.55,5.6,5.98,9.96,7.07c-0.52-2.29-3.29-2.22-3.84-4.32
		c4.47,0.33,5.78,5.31,10.42,6.89c-4.46-5.1-7.92-9.77-11.94-14.09c4.9,2.01,8.7,5.81,14.48,7.79c-2.43-4.71-7-6.49-9.3-11.03
		c4.37,1.09,6.54,4.94,10.59,5.89c-1.5-4.4-4.62-6.92-7.46-9.77c5.71,2.03,10.49,5.41,16.39,9.48c-4.06-6.39-9.03-10.02-14.28-13.87
		c5.63,0.01,9.01,3.59,13.49,7.33c-1.18-3.41-3.91-4.1-3.88-6.95c1.34,0.94,2.45,1.71,4.63,3.23c-2.92-5-7.98-5.36-10.83-9.61
		c5.91,2.24,11.19,4.23,16.92,6.4c-2.64-4.36-6.86-6.3-10.27-10.31c6.45,1.49,11.25,4.43,16.85,8.34
		c-3.07-5.37-7.16-8.07-10.75-12.2c4.3,0.7,7.26,3.55,11.7,3.65c-4.25-4.04-8.8-6.01-14.77-7.09c6.9-1.5,12.67,1.05,19.26,0.07
		c-4.63-3.66-9.48-4.22-14.51-5.12C553.36,556.1,558.33,553.69,563.73,552.13z M532.15,770.69c-0.79-10.39-3.67-21.1,8.37-27
		c10.13-4.96,19.46-4.23,28.05,3.62c1.14-8.64-4.38-14.16-14.1-14.75c-6.45-0.39-12.65,0.8-20.06,3.48
		c7.14-6.38,14.49-6.92,22.01-7.28c-8.23-1.75-16.44-2.71-25.46-0.41c5.72-4.72,11.63-5.13,17.69-5.1
		c-5.07-1.24-10.04-2.66-15.61-0.57c3.58-5.25,8.82-3.67,13.17-5.02c-8.12-1.2-15.56,2.51-24.21,3.75
		c5.44-5.56,11.37-6.65,19.14-5.96c-8.51-3.44-15.63-1.63-22.8-0.21c6.17-5.82,13.82-6.07,21.65-6.03
		c-7.11-4.39-14.89-5.12-22.82-4.02c-3.63,0.5-8.16-0.62-10.69,2.83c-4.82,6.56-11.1,12.06-14.48,19.65
		c-0.53,1.19-0.85,0.45-1.33,0.25c-1.28-0.51-2.48-0.24-2.91,1.02c-0.45,1.32,0.99,1.91,1.72,2.73c5.78,6.51,11.57,13,17.36,19.5
		c-8.35-5.38-13.53-14.17-21.82-19.49C503.64,755.69,508.48,763.7,532.15,770.69z M757.65,881.72c0.1-0.29,0.2-0.58,0.3-0.87
		c-35.6-11.02-71.11-22.29-106.8-32.99c-44.03-13.2-88.2-25.96-132.36-38.76c-1.71-0.5-4.62-2.78-5.53-0.31
		c-1.19,3.27,2.54,3.52,4.7,4.45c0.45,0.19,0.97,0.22,1.44,0.37c21.58,6.88,43.24,13.52,64.35,21.95
		c-21.22-5.1-42.44-10.19-64.02-15.37c0.45,2.13,1.48,2.16,2.46,2.43c6.34,1.72,12.82,2.88,18.94,5.41c3.2,1.32,5.06,4.44,8.64,5.34
		c27.7,7,55.32,14.29,83.02,21.3c31.55,7.99,63.1,16.06,95.17,21.78C737.86,878.22,747.76,879.96,757.65,881.72z M677.3,338.91
		c-14.31,5.61-20.08,17.33-23.65,31.86c5.49-3.67,9.07-8.49,15.46-10.13c-7.34,7.32-9.85,13.99-8.14,21.36
		c3.9-3.52,7.27-7.41,11.55-10.27c5.77-3.87,10.14-6.15,13.13-6.51c-14.64,14.74-17.63,20.94-15,31.1c1.93-1.05,0.88-3.91,2.96-4.82
		c-0.61,5.54,0.21,10.39,2.22,12.94c0.49-21.04,9.08-37.69,27.5-49.41c-8.26-4.65-16.25-6.89-26.24-6.36
		c8.14-3.16,15.31-3.39,22.82-2.89c-1.62-5.37-3.12-10.27-4.59-15.18c-0.76-2.55-1.52-5.04-3.54-7c-8.7-8.46-24.92-6.21-31.55,5.31
		c5.73-3.51,11.17-3.67,16.95-2.66c-9.32,3.85-16.25,9.84-19.84,20.75C663.83,341.8,670.16,339.44,677.3,338.91z M932.56,884.04
		c1.68-4.74,0.14-7.66-3.29-9.98c-2.37-1.6-4.96-2.61-7.65-3.53c-10.81-3.67-22.09-4.38-33.3-4.78
		c-13.79-0.49-27.65-0.49-41.29-2.39c-23.06-3.21-45.77-8.44-68.5-13.48c-41.21-9.14-82.24-19.03-123.16-29.37
		c-43.7-11.04-87.18-22.89-130.5-35.33c-7.72-2.22-15.44-4.4-23.73-6.76c1.55,2.57,3.57,3.02,5.43,3.58
		c10.42,3.12,20.86,6.2,31.31,9.23c54.97,15.94,110.02,31.57,165.58,45.31c33.94,8.39,67.88,16.79,102.03,24.31
		c13.4,2.95,26.83,5.76,40.4,7.69c14.89,2.12,29.92,0.97,44.89,0.98c9.82,0.01,19.62,0.12,29.04,3.17
		C925.41,874.53,931.29,876.4,932.56,884.04z M655.11,204.65c1.64,0.08,3.4-0.19,4.91,0.31c7.15,2.35,11.96-0.18,15.22-6.65
		c0.78-1.55,2.85-2.82,1.22-4.76c-1.74-2.07-3.65-0.81-5.31,0.33c-6.02,4.13-11.93,3.96-18.72,1.24
		c-9.03-3.62-17.53-7.8-24.78-14.36c-3.51-3.18-8-3.34-11.66-1.53c-3.78,1.87-1.86,6.12-0.89,9.05
		c5.85,17.66,18.06,29.36,35.03,36.41c3.57,1.48,7.02,1.25,9.56-1.71c2.37-2.76,4.62-5.91,1.42-9.87c1.2-0.21,1.85-0.45,2.49-0.42
		c1.98,0.1,3.48-0.93,3.68-2.64c0.25-2.14-2.16-1.73-3.33-2.07C661.01,207.13,657.88,206.9,655.11,204.65z M378.07,230.73
		c6.6,14.95,4.08,29.4-0.63,43.85c8.22-7.35,10.68-16.92,10.84-27.7c3.07,8.58,0.99,16.77-0.38,25.75
		c5.92-6.59,7.46-13.84,8.43-22.21c2.49,9.73,1.98,18.3-1.7,27.92c8.2-7.43,10.21-16.15,11.77-26.29c1.73,9.78,0.01,17.68-4.14,25.2
		c5.35-5.37,7.78-11.99,9.53-20.49c0.4,8.59,2.24,15.32,4.26,22.65c7.45-19.29,5.74-35.27-4.86-47.07c0.1,3.83,2.98,6.78,2.6,10.56
		c-1.71-0.49-1.97-2.01-2.71-3.03c-3.84-5.29-10.22-9.15-15.28-7.33c-5.7,2.05-8.85-1.69-13.22-1.81
		C381.29,230.7,379.99,230.73,378.07,230.73z M705.05,396.87c-1.05-5.13-2.05-10.07-3.33-16.36c6,11.72,6,11.72,10.1,14.28
		c-1.04-3.63-3.62-6.74-3.89-11.34c3.57,2.31,3.53,6.42,7.26,8.5c0.54-6.56-2.48-11.77-3.01-17.94c4.34,5.38,7.44,11.42,14.73,12.58
		c-0.82-3.02-3.2-5.39-3.33-9.58c2.7,2.56,4.86,4.61,7.02,6.67c0.19-0.11,0.38-0.22,0.56-0.34c-2.3-4.07-4.6-8.14-6.9-12.21
		c3.19,2.01,5.69,4.48,8.51,6.5c0.99,0.71,2.26,4.36,3.92,1.01c1.22-2.47,4.77-5.87,1.1-8.25c-7.87-5.1-14.36-11.17-18.48-19.68
		c-1.27-2.64-2.56-1.99-4.34,0c-3.78,4.23-4.94,9.3-5.2,16c-1.46-3.49-2.38-5.69-3.32-7.95c-8.3,5.68-15.52,11.73-14.97,22.76
		c0.44,8.81,3.47,16.5,10.63,23.35c-0.99-4.48-2.19-7.97-1.94-11.91C702.38,393.99,702.62,396.35,705.05,396.87z M479.46,721.57
		c5.56-8.12,4.7-18.64-2.68-27.35c-8.66-10.22-18.76-18.85-30.9-24.76c-4.42-2.15-9.04-4.23-15.21-3.78
		c5.87,5.22,8.84,11.14,11.07,17.4c1.77,4.98,4.64,8.5,9.57,10.7c3.56,1.59,7.12,3.5,10.31,6.89c-5.86-2.32-11.18-4.42-16.5-6.53
		c-1.28-0.51-2.85-1.06-3.36,0.68c-0.61,2.09,1.49,1.49,2.51,1.94C457.67,702.61,472.61,706.25,479.46,721.57z M400.5,433.49
		c16.11-3.22,30.84-5.92,45.89-6.96c15.28-1.06,30.29,0.6,45.38,2.88c-8.57-4.42-17.07-8.73-26.48-10.8
		c-15.65-3.44-31.39-2.31-47.1-0.8c-8.82,0.85-16.53,4.7-23.48,10.04c-2.11,1.62-4.05,3.59-4.55,7.19
		c7.73-6.69,16.31-9.28,26.93-10.28C410.7,427.1,406.04,429.77,400.5,433.49z M453.55,776.68c6.87,6.51,12.6,13.05,18.07,19.8
		c1.44,1.78,2.09,0.28,3.22-0.17c6.01-2.44,11.99-5.77,18.56-1.5c1.86,1.21,2.48,0.56,2.85-1.49c1.19-6.69-0.33-9.27-7.35-11.93
		c-0.99-0.37-1.66-1.38-1.23-1.6c3.1-1.56,0.38-2.69-0.4-3.45c-6.08-5.94-13.34-9.01-21.95-8.79c-2.98,0.08-5.81,0.94-7.59,3.01
		c-1.68,1.95,2.16,3.26,1.87,5.43c-1.55-0.43-2.03-2.71-4.48-2.3c1.43,1.95,2.62,3.58,4.1,5.6
		C456.96,778.73,456.56,776.51,453.55,776.68z M684.58,189.17c2.17-1.32,2.65-3.53,3.42-5.47c3.29-8.33,5.45-16.95,7.37-25.71
		c1.13-5.17-0.4-6.84-4.97-7.95c-15.7-3.79-31.57-4.24-47.47-2.16c-8.97,1.18-10.01,2.62-11.73,11.42c-0.48,2.44-0.7,4.92-1.1,7.38
		c-1.01,6.16,0.66,10.91,6.37,14.24c3.43,2,6.96,3.85,10.34,5.91c10.45,6.38,19.99,6.84,29.11-2.65c3.32-3.45,5.17-2.65,7.43,1.76
		C683.85,186.92,684.15,188.01,684.58,189.17z M487.8,435.86c31.81,20.59,61.07,44.34,89.53,69.22
		c-6.33-7.82-12.82-15.47-19.66-22.8c-12.15-13.01-24.17-26.21-39.38-35.86C508.98,440.52,498.87,436.86,487.8,435.86z
		 M561.11,700.4c5.72-8.43,5.27-15.33-1.14-22.48c-3.7-4.12-8.1-7.38-12.65-10.47c-6.32-4.28-6.32-4.29-11.05,1.36
		c-5.56,6.63-5.56,6.63,0.63,11.55c-3.02,0.4-5.49-2.86-9.71-1.04C539.81,685.19,552.85,688.63,561.11,700.4z M579.21,573.99
		c5.77-6.64,8.3-16.18,6.95-24.37c-1.4-8.52-5.89-15.43-11.31-21.8c-17.87-20.98-39.87-37.2-62.12-53
		c-16.38-11.64-33.46-22.3-50.23-33.4c-2.9-1.92-5.48-4.39-9.03-5.26c3.47,3.4,7.03,6.65,10.83,9.58
		c16.85,12.99,35.28,23.67,52.72,35.8c19.02,13.22,37.43,27.06,52.41,44.96c7.89,9.43,15.01,19.15,13.61,32.51
		C582.49,564.17,580.54,568.91,579.21,573.99z M336.47,275.71c2.32,2,4.2,2.95,5.81,4.28c8.1,6.62,16.17,6.47,23.35-0.83
		c9.57-9.75,12.88-21.83,10.91-35.21c-0.62-4.19-1.27-8.73-5.26-12.45c-0.68,5.94,0.33,11.16-0.17,16.4
		c-1.33,14.06-10.56,31.3-30.19,27.83C339.79,275.54,338.61,275.71,336.47,275.71z M374.51,706.42c0.86,0.05,1.71,0.26,2.5,0.13
		c17.42-2.94,34.57-7.38,52.21-9.08c4.93-0.47,9.71-5.32,8.84-8.89c-1.99-8.15-5.35-15.66-11.77-21.45
		c-2.67-2.41-5.92-2.5-8.13-0.36c-3.19,3.08-7.05,5.21-10.23,8.32c2.47-0.71,4.99-1.38,7.1-2.7c3.46-2.18,6.89-2.83,10.1-0.15
		c4.87,4.06,7.44,9.58,6.62,15.83c-0.61,4.64-5.13,4.98-8.95,5.53c-2.12,0.3-4.21,0.76-6.34,0.97c-12.69,1.27-25.22,3.42-37.44,7.1
		C376.82,702.34,374.6,703.35,374.51,706.42z M680.02,134.36c-12.57-6.76-45.58-1.51-57.8,9.32c4.99-2.08,9.1-4.45,14.59-5.07
		c-3.54,2.6-7.48,3.04-11.02,6.77c20.6-2.79,39.87-6.44,60.62-3.67c-3.43-3.23-6.81-3.15-9.56-4.54
		c-6.36-3.21-13.31-2.71-20.14-3.04C664.5,133.55,672.25,133.75,680.02,134.36z M384.06,725.05c0-1.78,0.05-3.11-0.01-4.43
		c-0.4-9.41-2.27-11.06-10.91-8.94c-6.84,1.68-11.76,5.64-13.66,12.81c-1.51,5.71,1.45,14.42,5.9,16.81c5.05,2.71,12,0.8,15.82-4.43
		C383.87,733.2,384.46,729,384.06,725.05z M332.84,736.47c-2.37,2.81-4.34,5.68-7.65,6.39c-7.17,1.55-10.8,7.11-15.32,12.73
		c8.89,1.92,16.77,6.03,25.85,5.2c3.97-0.36,5.4-1.96,4.56-5.71C338.82,748.61,335.83,742.77,332.84,736.47z M399,768.79
		c-8.79-11.37-16.24-23.16-32.41-20.04c4.73,12.82,19.64,25.38,28.49,21.26c-2.41-2.23-5.72-3.26-8.45-6.94
		C391.1,765.14,394.6,766.76,399,768.79z M481.89,810.68c2.82,0.17,4.4,0.95,5.78,2.22c0.45,0.41,0.26,1.52,1.65,0.79
		c6.87-3.6,11.03-2.04,14.06,4.77c0.52,1.16,0.14,3.19,2.26,3.39c1.9-10.03-0.98-15.26-10.39-18.2c-3.77-1.18-7.7-1.95-11.61-2.53
		c-3.9-0.57-7.17,0.78-9.36,4.28c-1.83,2.92-1.84,5.07,1.88,6.56c2.99,1.19,5.75,2.95,9.6,3.32
		C484.36,813.61,483.31,812.37,481.89,810.68z M549.93,708.47c4.58-6.53,4.63-6.68-1.42-10.68c-4.27-2.82-8.77-5.26-13.56-7.15
		c-10.2-4.03-10.19-4.06-17.32,4.24c-0.1,0.12,0.11,0.52,0.17,0.77C529.76,696.54,540.88,699.43,549.93,708.47z M567.69,791.44
		c-0.08-2.23-2.47-2.63-3.13-4.79c4.01,1.21,7.57,5.35,11.81,1.32c0.18-0.17,0.9,0.33,1.38,0.36c6.31,0.41,9.73,4.84,13.23,10.26
		c0.5-7.36-2.07-12.48-7.81-15.09c-7.22-3.29-14.9-6-22.92-2.67c-2.16,0.89-3.19,3.46-3.07,5.87c0.12,2.25,2.36,2.43,4.03,3.06
		C563.29,790.54,565.29,791.7,567.69,791.44z M665.89,228.34c2.1,6.43-0.99,9.14-6.05,10.72c-3.48,1.09-6.92,2.35-10.31,3.71
		c-5.36,2.14-10.74,4.3-16.18,9.07c13.51-2.83,25.62-5.43,37.78-7.85c3.05-0.61,3.24-2.04,2.38-4.56
		C672.09,235.27,670.05,231.61,665.89,228.34z M401.38,679.9c4.86,1,9.24-0.52,13.61-1.92c2.53-0.81,4.35-1,5.39,2.18
		c1.05,3.21-0.14,4.81-3.05,5.45c-3.7,0.81-7.43,1.64-11.19,1.97c-2.59,0.23-4.23,0.73-3.89,3.69c0.36,3.13,2.5,2.42,4.47,2.04
		c4.66-0.89,9.31-1.84,13.99-2.67c3.15-0.56,6.51-0.93,7.07-4.88c0.58-4.08-3.42-10.72-6.85-11.02
		C413.87,674.12,407.61,677.04,401.38,679.9z M520.8,358.51c-3.9,0.7-5.77,2.33-7.35,4.26c-6,7.36-12.79,13.96-19.55,20.6
		c-5.33,5.24-10.69,10.46-15.89,15.84c-1.27,1.31-3.39,3.34-1.43,5.03c1.47,1.27,2.71-1.24,3.82-2.32
		c7.28-7.02,14.43-14.18,21.76-21.14C508.99,374.28,515.62,367.68,520.8,358.51z M353.63,726.71c-10.24,10.18-9.49,20.99,2.36,30.84
		c-2-5.2-4.69-9.51-5.35-14.54c3.86,6.05,6.5,12.93,12.33,17.52C359.29,749.47,355.34,738.64,353.63,726.71z M689.94,373.02
		c-10.72,11.58-11.49,24.08-2.63,32.47c0.32-1.62-1.48-2.89-0.79-4.61c2.54,1.3,2.91,4.53,5.67,6.21
		C691.13,395.72,689.87,384.85,689.94,373.02z M331.76,766.53c5.45,3.3,10.88,2.98,15.38,5.65c-2.79,1.08-5.3-0.85-9.33,0.28
		c8.19,1.43,14.47,4.66,21.94,5.3c-1.04-1.78-3.03-1.16-3.31-3.2c9.61,4.29,20.14,5.14,29.53,10.06c0.99-3.47,0-5.16-3.28-6.15
		c-9.98-3.01-20.01-5.79-30.21-7.96C346.03,769.13,339.76,766.84,331.76,766.53z M292.71,755.31c2.04-0.3,3.35-0.78,4.59-0.63
		c7.55,0.95,11.05-4.6,15.02-9.29c1.37-1.62,1.76-3.91,0.32-5.52c-1.41-1.57-3.17,0-4.46,0.81c-3.68,2.33-7.24,2.7-11.29-0.7
		C298.05,746.06,295.13,750.28,292.71,755.31z M725.05,336.98c-3.99,5.44-4.56,9.81-2.36,14.96c3.01,7.07,8.38,11.2,15.13,14.06
		c1.24,0.53,2.35,1.37,3.31-0.39c0.85-1.57-0.07-2.58-1.12-3.37C731.89,356.14,726.51,348.33,725.05,336.98z M519.77,680.39
		c-7.33,8.87-14.65,17.31-21.06,26.56c-5.72,8.26-11.2,16.85-20.41,22.05c2.34,1.52,4.5,0.76,6.37-0.68
		c1.83-1.4,3.65-2.96,5.03-4.78c9.79-12.97,19.47-26.03,29.16-39.08C519.61,683.47,520.74,682.5,519.77,680.39z M744.29,401.49
		c7.43-6.92,12.68-15.34,17.91-23.91c-2.49,0-4.51,0.31-6.39-0.07c-3.61-0.73-4.83,0.94-5.67,4.15
		C748.39,388.32,746.26,394.88,744.29,401.49z M568.17,680.47c5.43-5.31,11.98-10.13,10.68-19.19c-0.32-2.21,0.64-2.98,2.04-4.38
		c5.15-5.13,9.36-10.96,11.75-19C579.5,649.96,574.57,665.6,568.17,680.47z M621.14,482.04c7.21,4.98,12.04,11.46,14,20.28
		c1.93,8.67-0.51,16.68-2.89,24.8C642.54,512.56,642.34,488.42,621.14,482.04z M629.16,151.13c-15.6-3.57-30.54-8.28-45.65-12.37
		C593.8,145.69,624.6,154.14,629.16,151.13z M613.55,568.82c1.81-16.58-6.8-28.59-17.28-39.78
		C603.28,541.76,611.93,553.77,613.55,568.82z M474.83,681.79c-7.95-10.27-17.96-17.47-30.55-20.78
		C454.49,667.9,464.67,674.84,474.83,681.79z M330,719.84c2.23-0.17,4.18-3.25,5.69-1.28c1.67,2.18-0.67,3.94-2.46,5.15
		c-1.41,0.96-1.63,2.07-0.94,3.39c0.53,1,1.18,2.38,2.06,2.65c1.71,0.53,1.87-1.49,2.54-2.46c1.79-2.59,3.21-5.44,3.95-8.5
		c0.8-3.32-0.76-5.47-4.16-4.99C333.57,714.26,330.84,715.89,330,719.84z M380.38,698.24c7.07,0.21,11.25-6.05,17.59-7.19
		c-3.62-6.28-3.67-6.33-8.9-1.7C386,692.08,382.82,694.73,380.38,698.24z M363.51,257.08c-6.49,10.75-16.65,12.86-28.22,11.71
		C349.2,274.14,359.61,269.81,363.51,257.08z M346.81,218.13c-1.09-6.64-3.36-11.36-6.05-15.91c-1.16-1.96-2.86-3.22-5.09-3.61
		c-1.11-0.2-2.56-0.42-3.24,0.61c-0.86,1.32,0.55,2.05,1.36,2.78C338.61,206.35,342.47,211.49,346.81,218.13z M405.57,790.44
		c2.5-2.75,1.48-5.04-0.34-7.25c-2.71-3.3-6.46-3.8-10.38-3.71c-1.24,0.03-2.79-1.37-3.63,0.02c-0.8,1.31-0.06,2.95,0.9,4.15
		c1,1.24,1.64,2.9,3.65,3.41c0.36-2.13,0.32-4.67,3.44-4.47C403.95,782.88,404.01,787.23,405.57,790.44z M315.47,735.9
		c1.3,4.64,4.02,4.77,7.43,2.6c2.21-1.41,4.29-3.06,6.56-4.36c2.06-1.18,1.8-2.44,0.63-3.99c-1.14-1.51-1.81-4.11-4.25-3.27
		c-1.51,0.52-1.65,2.48-1.35,4.29c0.81,5.02-0.39,6.11-5.44,5.29C317.94,736.29,317.01,735.27,315.47,735.9z M285.8,725.9
		c-1.7-0.04-2.01,1.26-1.57,2.33c1.58,3.8,3.31,7.55,5.14,11.24c0.79,1.59,2,1.06,3.35,0.38c1.73-0.88,1.5-1.86,0.69-3.17
		c-1.82-2.96-3.62-5.92-5.38-8.91C287.5,726.86,286.87,726.16,285.8,725.9z M321.06,206.95c-3.11,6.78,1.42,15.39,11.42,22.57
		C327.31,222.38,324.05,215.26,321.06,206.95z M542.4,420.02c5.26,8.9,7.55,17.22,6.5,27.23
		C553.98,438.65,551.4,427.75,542.4,420.02z M773.16,331.03c-9-2.05-18.36-0.83-27.26-5.81
		C750.94,331.75,764.15,334.33,773.16,331.03z M731.38,310.09c2.92-7.83,6.3-14.73,9.85-21.55c1.17-2.25,2.25-3.67,5.13-0.9
		c-0.67-2.53-0.91-4.57-2.75-4.74c-1.55-0.15-2.19,1.75-2.89,3.03c-2.44,4.5-4.92,8.97-7.23,13.54
		C731.94,302.54,730.44,305.7,731.38,310.09z M321.1,764.83c-6.96-2.58-13.69-6.03-21.41-4.87
		C306.58,762.78,313.53,765.28,321.1,764.83z M367.35,207.94c-2.01-6.87-2.91-13.16-10.08-15.15c-3.84-1.07-7.36,0.57-9.81,4.16
		C357.11,193.63,357.11,193.63,367.35,207.94z M732.47,335.5c0.78,7.82,3.87,14.41,9.6,19.65c0.63,0.57,1.12,2.07,2.28,1.16
		c1.22-0.96,0.48-2.32-0.34-3.05C738.56,348.35,735.57,341.89,732.47,335.5z M764.23,314.38c-7.47-1.26-14.71,0.66-22.04,1.23
		C749.73,319,756.94,315.2,764.23,314.38z M769.8,298.3c-11.99-1.94-22.27,1.36-25.12,7.77C751.78,300.18,760,298.82,769.8,298.3z
		 M107.08,643.17c-4.26-0.49-8.59-1.07-12.46,1.59c-1.42,0.98-2.25,2.08-0.61,3.57c1.23,1.11,2.6,1.92,3.58-0.12
		C99.52,644.21,102.73,642.84,107.08,643.17z M767.3,369.74c-4.31,0.29-8.05,0.56-11.8,0.79c-1.14,0.07-1.96,0.6-2.11,1.68
		c-0.22,1.51,1.09,1.39,1.99,1.44C759.62,373.86,763.98,374.34,767.3,369.74z M124.4,652.94c0.6,3.34,1.13,6.31,1.68,9.29
		c0.27,1.5,1.16,2.49,2.7,2.22c1.96-0.34,1.41-2.11,1.13-3.19C129.06,658.06,127.61,655.14,124.4,652.94z M635.68,692.98
		c-4.1-0.73-7.17,0.39-10.13,1.9c-0.98,0.5-2.22,1.12-2.02,2.44c0.1,0.66,0.95,1.3,1.59,1.77c1.45,1.06,2.09-0.24,2.68-1.15
		C629.54,695.29,632.32,694.3,635.68,692.98z M654.46,700.97c0.8,2.95,1.79,5.68,1.83,8.7c0.02,1.6,1.15,2.32,2.78,1.87
		c1.51-0.42,1.41-1.53,1.15-2.77C659.5,705.32,657.09,703.1,654.46,700.97z M771.12,360.59c-4.7,1.08-8.65,2.31-12.83,1.93
		c-0.94-0.09-2.12-0.02-2.12,1.41c0,1.03,0.73,1.54,1.65,1.31C762.16,364.17,767.3,365.64,771.12,360.59z M372.69,770.07
		c-1.04-3.63-2.66-6.18-6.66-5.48c-0.82,0.15-1.62,0.39-1.83,1.35c-0.24,1.06,0.45,1.38,1.3,1.66
		C367.9,768.4,370.29,769.24,372.69,770.07z M308.79,229.28c0.88,5.63,3.93,9.53,9.67,12.87
		C314.73,237.19,311.76,233.24,308.79,229.28z"/>
	<path d="M236.87,746.04c-51.99-10.99-102.74-25.67-151.68-46.25C136.91,711.52,187.4,727.29,236.87,746.04z"/>
	<path d="M280.08,744.13c-39.53-12.22-77.79-24.05-116.05-35.87c0.04-0.25,0.08-0.5,0.12-0.74c5.77,1.06,11.59,1.9,17.31,3.21
		c27.36,6.24,54.91,11.68,81.89,19.52c3.17,0.92,6.4,1.61,9.54,2.62C277.84,734.45,277.88,739.25,280.08,744.13z"/>
	<path d="M161.96,700.42c6.65,1.08,13.32,2.02,19.94,3.27c20.6,3.91,41.35,7.04,61.76,11.96c7.85,1.89,15.66,3.93,23.47,5.98
		c1.75,0.46,3.53,1.03,5.07,1.93c2.21,1.3,2.31,3.77,1.72,5.8c-0.79,2.73-2.7,0.68-4.04,0.33c-35.63-9.33-71.25-18.71-106.87-28.09
		c-0.41-0.11-0.78-0.34-1.18-0.51C161.88,700.85,161.92,700.63,161.96,700.42z"/>
	<path d="M470.73,117.92c8.1,11.93,18.09,14.54,30.34,8.93c7.65-3.5,13.44-8.97,18.39-15.62C528,99.76,538.71,92.1,553.96,93
		c-8.76,2.62-16.88,6.36-24.5,13.89c4.88-1.91,8.03-4.44,12.74-5.4c-2.18,2.85-5.46,3.01-7.02,5.85c2.39,0.26,4.17-1.42,6.57-1.07
		c-1.78,1.18-3.55,2.35-5.33,3.53c-9.11,6.05-18.15,12.2-27.36,18.1c-5.89,3.77-12.04,6.91-19.43,6.75
		C479.77,134.44,472.87,128.8,470.73,117.92z"/>
	<path d="M683.97,228.48c4.08,4.13,7.45,8.63,7.71,15.12c-2.24-2.56-3.81-5.45-6.66-7.07c0,0,0.1,0.14,0.1,0.14
		c-2.35-3.33-6.24-5.52-7.59-9.75c2.75-0.71,4.23,2.07,6.61,1.75L683.97,228.48z"/>
	<path d="M609.53,289.82c-15.11-8.14-30.04-16.55-43.8-26.87C580.78,271.19,596.87,277.68,609.53,289.82z"/>
	<path d="M416.91,762.54c-4.71-5.02-9.42-10.04-14.13-15.06C408.69,751.39,413.23,756.57,416.91,762.54z"/>
	<path d="M585.45,112.87c5.19-6.4,10.18-13.21,20.62-12.86C598.6,104.17,591.46,107.64,585.45,112.87z"/>
	<path d="M641.83,155.96c-4.73,6.14-3.55,12.77-5.35,18.78c-2.17-1.45-2.61-3.68-2.22-6.02c2.48-14.92,0.58-14.82,15.58-17.78
		c12.57-2.48,25.04-1.48,37.39,1.7c3.51,0.91,5.57,2.57,4.69,6.61c-1.7,7.75-2.92,15.63-6.49,23.14c-2.07-1.24-3.1-4.3-5.82-4.1
		c-2.58,0.19-4.54,2.19-6.27,3.86c-8.76,8.43-17.47,7.37-26.89,0.96c-7.74-5.26-7.86-4.91-6.46-14.03
		C640.6,165.1,642.08,161.21,641.83,155.96z"/>
	<path d="M378.1,728.64c0.26,3.25-1.12,6.36-4.31,8.37c-2.2,1.38-4.69,1.48-7.07,0.05c-4.03-2.42-5.69-10.71-2.69-14.72
		c2.1-2.81,4.62-5.35,8.73-3.82C377.25,720.19,378.18,723.87,378.1,728.64z M375.18,727.85c-0.34-3.18-0.84-6.76-4.64-7.09
		c-4.18-0.36-5,3.25-4.93,6.52c0.06,3.09,0.22,7,4.35,7.17C373.85,734.62,374.81,731.22,375.18,727.85z"/>
	<path d="M324.36,757.57c-2.67-0.87-5.28-3.36-7.31-6.28c-0.76-1.09-0.19-3.48,2.05-2.41c2.3,1.1,4.53,1.64,7.04,1.92
		c2.22,0.25,3.12,2.16,2.88,4.48C328.78,757.67,327.09,757.6,324.36,757.57z"/>
</g>
</svg>
